<svg width="26" height="26" viewBox="0 0 26 26" fill="none" xmlns="http://www.w3.org/2000/svg">
<g clip-path="url(#clip0_13_1374)">
<mask id="path-2-inside-1_13_1374" fill="white">
<path fill-rule="evenodd" clip-rule="evenodd" d="M14.9347 8.81498C15.2443 8.50536 15.3336 8.42053 15.4097 8.36892C15.777 8.12403 16.2572 8.12403 16.6245 8.36892C16.7006 8.42053 16.7898 8.50536 17.0994 8.81498C17.409 9.1246 17.493 9.21381 17.5446 9.2899C17.7895 9.65724 17.7895 10.1365 17.5446 10.5048C17.4939 10.58 17.409 10.6701 17.0994 10.9797L16.6359 11.4432L14.4712 9.27853L14.9347 8.81498ZM13.5441 10.2056L15.707 12.3721L10.6692 17.4099C10.5594 17.5196 10.4275 17.6046 10.2823 17.6594C10.137 17.7141 9.98181 17.7373 9.82693 17.7274L9.39837 17.7003C8.97855 17.674 8.72665 17.6566 8.54386 17.6216C8.38205 17.5901 8.35756 17.5586 8.35669 17.5568C8.35581 17.5568 8.32433 17.5324 8.29284 17.3705C8.25786 17.1878 8.24036 16.935 8.21412 16.5152L8.18701 16.0875C8.17712 15.9326 8.20031 15.7774 8.25505 15.6322C8.3098 15.4869 8.39483 15.355 8.5045 15.2452L13.5441 10.2056ZM14.6811 7.27827C14.4826 7.41121 14.2954 7.59838 14.0522 7.84153L14.0068 7.88701L13.0797 8.81411L7.57827 14.3164C7.33662 14.558 7.14922 14.8483 7.02857 15.168C6.90792 15.4878 6.85679 15.8295 6.87857 16.1706L6.90481 16.5983L6.90744 16.635C6.93105 17.0058 6.95292 17.3434 7.00627 17.6181C7.06399 17.9198 7.17332 18.2277 7.43046 18.4839C7.68673 18.7402 7.99459 18.8504 8.29634 18.9081C8.57097 18.9606 8.90858 18.9825 9.27942 19.0061L9.31615 19.0087L9.74384 19.0358C10.0849 19.0576 10.4266 19.0065 10.7464 18.8858C11.0661 18.7652 11.3564 18.5778 11.598 18.3361L17.0994 12.8348L18.0265 11.9077L18.072 11.8613C18.3152 11.619 18.5032 11.4319 18.6353 11.2333C18.8996 10.8377 19.0407 10.3727 19.0407 9.89689C19.0407 9.42112 18.8996 8.95603 18.6353 8.56047C18.5032 8.3628 18.3152 8.17563 18.072 7.93249L18.0274 7.88701L17.9819 7.84153C17.7388 7.59838 17.5516 7.41121 17.3531 7.27827C16.9576 7.0141 16.4927 6.8731 16.0171 6.8731C15.5415 6.8731 15.0766 7.0141 14.6811 7.27827ZM15.1866 17.7615C15.0127 17.7615 14.8458 17.8306 14.7228 17.9536C14.5998 18.0767 14.5307 18.2435 14.5307 18.4175C14.5307 18.5914 14.5998 18.7583 14.7228 18.8813C14.8458 19.0043 15.0127 19.0734 15.1866 19.0734H18.6851C18.8591 19.0734 19.0259 19.0043 19.149 18.8813C19.272 18.7583 19.3411 18.5914 19.3411 18.4175C19.3411 18.2435 19.272 18.0767 19.149 17.9536C19.0259 17.8306 18.8591 17.7615 18.6851 17.7615H15.1866Z"/>
</mask>
<path fill-rule="evenodd" clip-rule="evenodd" d="M14.9347 8.81498C15.2443 8.50536 15.3336 8.42053 15.4097 8.36892C15.777 8.12403 16.2572 8.12403 16.6245 8.36892C16.7006 8.42053 16.7898 8.50536 17.0994 8.81498C17.409 9.1246 17.493 9.21381 17.5446 9.2899C17.7895 9.65724 17.7895 10.1365 17.5446 10.5048C17.4939 10.58 17.409 10.6701 17.0994 10.9797L16.6359 11.4432L14.4712 9.27853L14.9347 8.81498ZM13.5441 10.2056L15.707 12.3721L10.6692 17.4099C10.5594 17.5196 10.4275 17.6046 10.2823 17.6594C10.137 17.7141 9.98181 17.7373 9.82693 17.7274L9.39837 17.7003C8.97855 17.674 8.72665 17.6566 8.54386 17.6216C8.38205 17.5901 8.35756 17.5586 8.35669 17.5568C8.35581 17.5568 8.32433 17.5324 8.29284 17.3705C8.25786 17.1878 8.24036 16.935 8.21412 16.5152L8.18701 16.0875C8.17712 15.9326 8.20031 15.7774 8.25505 15.6322C8.3098 15.4869 8.39483 15.355 8.5045 15.2452L13.5441 10.2056ZM14.6811 7.27827C14.4826 7.41121 14.2954 7.59838 14.0522 7.84153L14.0068 7.88701L13.0797 8.81411L7.57827 14.3164C7.33662 14.558 7.14922 14.8483 7.02857 15.168C6.90792 15.4878 6.85679 15.8295 6.87857 16.1706L6.90481 16.5983L6.90744 16.635C6.93105 17.0058 6.95292 17.3434 7.00627 17.6181C7.06399 17.9198 7.17332 18.2277 7.43046 18.4839C7.68673 18.7402 7.99459 18.8504 8.29634 18.9081C8.57097 18.9606 8.90858 18.9825 9.27942 19.0061L9.31615 19.0087L9.74384 19.0358C10.0849 19.0576 10.4266 19.0065 10.7464 18.8858C11.0661 18.7652 11.3564 18.5778 11.598 18.3361L17.0994 12.8348L18.0265 11.9077L18.072 11.8613C18.3152 11.619 18.5032 11.4319 18.6353 11.2333C18.8996 10.8377 19.0407 10.3727 19.0407 9.89689C19.0407 9.42112 18.8996 8.95603 18.6353 8.56047C18.5032 8.3628 18.3152 8.17563 18.072 7.93249L18.0274 7.88701L17.9819 7.84153C17.7388 7.59838 17.5516 7.41121 17.3531 7.27827C16.9576 7.0141 16.4927 6.8731 16.0171 6.8731C15.5415 6.8731 15.0766 7.0141 14.6811 7.27827ZM15.1866 17.7615C15.0127 17.7615 14.8458 17.8306 14.7228 17.9536C14.5998 18.0767 14.5307 18.2435 14.5307 18.4175C14.5307 18.5914 14.5998 18.7583 14.7228 18.8813C14.8458 19.0043 15.0127 19.0734 15.1866 19.0734H18.6851C18.8591 19.0734 19.0259 19.0043 19.149 18.8813C19.272 18.7583 19.3411 18.5914 19.3411 18.4175C19.3411 18.2435 19.272 18.0767 19.149 17.9536C19.0259 17.8306 18.8591 17.7615 18.6851 17.7615H15.1866Z" fill="black"/>
<path d="M14.9347 8.81498L13.5204 7.40067L13.5204 7.40068L14.9347 8.81498ZM15.4097 8.36892L14.3002 6.70471L14.2936 6.7091L14.287 6.71355L15.4097 8.36892ZM16.6245 8.36892L17.7471 6.71355L17.7406 6.7091L17.734 6.70471L16.6245 8.36892ZM17.5446 9.2899L19.2088 8.18043L19.2044 8.17384L19.2 8.16729L17.5446 9.2899ZM17.5446 10.5048L19.2029 11.6231L19.21 11.6124L17.5446 10.5048ZM17.0994 10.9797L18.5137 12.394L18.5137 12.394L17.0994 10.9797ZM16.6359 11.4432L15.2216 12.8575L16.6359 14.2718L18.0502 12.8575L16.6359 11.4432ZM14.4712 9.27853L13.0569 7.86423L11.6426 9.27853L13.0569 10.6928L14.4712 9.27853ZM13.5441 10.2056L14.9595 8.79247L13.5452 7.37588L12.1298 8.79133L13.5441 10.2056ZM15.707 12.3721L17.1213 13.7864L18.5345 12.3732L17.1225 10.9589L15.707 12.3721ZM10.6692 17.4099L12.0826 18.8251L12.0835 18.8242L10.6692 17.4099ZM9.82693 17.7274L9.95444 15.7313L9.95322 15.7313L9.82693 17.7274ZM9.39837 17.7003L9.52465 15.7041L9.52313 15.704L9.39837 17.7003ZM8.54386 17.6216L8.16181 19.5849L8.16788 19.586L8.54386 17.6216ZM8.35669 17.5568L10.1457 16.6624L9.59284 15.5567H8.35669V17.5568ZM8.29284 17.3705L6.32835 17.7465L6.32954 17.7526L8.29284 17.3705ZM8.21412 16.5152L10.2104 16.3904L10.2102 16.3886L8.21412 16.5152ZM8.18701 16.0875L10.1831 15.9609L10.1831 15.96L8.18701 16.0875ZM8.5045 15.2452L7.09019 13.8309L7.08928 13.8318L8.5045 15.2452ZM14.6811 7.27827L13.5701 5.61506L13.5682 5.61631L14.6811 7.27827ZM14.0522 7.84153L15.4665 9.25584L15.4665 9.25583L14.0522 7.84153ZM14.0068 7.88701L12.5925 6.4727L12.5925 6.4727L14.0068 7.88701ZM13.0797 8.81411L11.6653 7.3998L11.6652 7.39991L13.0797 8.81411ZM7.57827 14.3164L8.99248 15.7308L8.99269 15.7306L7.57827 14.3164ZM6.87857 16.1706L8.87496 16.0481L8.87464 16.0431L6.87857 16.1706ZM6.90481 16.5983L4.90844 16.7207L4.90905 16.7308L4.90977 16.7408L6.90481 16.5983ZM6.90744 16.635L8.90353 16.5079L8.90304 16.5002L8.90249 16.4925L6.90744 16.635ZM7.00627 17.6181L8.97078 17.2422L8.96969 17.2366L7.00627 17.6181ZM7.43046 18.4839L8.84477 17.0696L8.84236 17.0672L7.43046 18.4839ZM8.29634 18.9081L7.92052 20.8726L7.92094 20.8727L8.29634 18.9081ZM9.27942 19.0061L9.42193 17.011L9.41423 17.0105L9.40653 17.01L9.27942 19.0061ZM9.31615 19.0087L9.17364 21.0038L9.18162 21.0043L9.18961 21.0048L9.31615 19.0087ZM9.74384 19.0358L9.87135 17.0398L9.87039 17.0397L9.74384 19.0358ZM11.598 18.3361L10.1837 16.9218L10.1836 16.9219L11.598 18.3361ZM17.0994 12.8348L18.5137 14.2491L18.5137 14.2491L17.0994 12.8348ZM18.0265 11.9077L19.4408 13.322L19.4476 13.3152L19.4542 13.3084L18.0265 11.9077ZM18.072 11.8613L16.6603 10.4444L16.6522 10.4524L16.6443 10.4605L18.072 11.8613ZM18.6353 11.2333L16.9723 10.122L16.9699 10.1255L18.6353 11.2333ZM19.0407 9.89689H17.0406H19.0407ZM18.6353 8.56047L16.9722 9.67164L16.9723 9.67181L18.6353 8.56047ZM18.072 7.93249L16.644 9.33299L16.6508 9.33992L16.6577 9.34679L18.072 7.93249ZM18.0274 7.88701L19.4554 6.4865L19.4486 6.47957L19.4417 6.4727L18.0274 7.88701ZM17.9819 7.84153L16.5676 9.25583L16.5676 9.25584L17.9819 7.84153ZM17.3531 7.27827L18.4659 5.61631L18.464 5.61506L17.3531 7.27827ZM14.9347 8.81498L16.349 10.2293C16.4254 10.1529 16.4848 10.0938 16.5325 10.0468C16.5808 9.99922 16.6112 9.96996 16.6305 9.95176C16.6736 9.9112 16.6248 9.96156 16.5323 10.0243L15.4097 8.36892L14.287 6.71355C14.012 6.90007 13.7562 7.16488 13.5204 7.40067L14.9347 8.81498ZM15.4097 8.36892L16.5191 10.0331C16.2146 10.2361 15.8195 10.2361 15.515 10.0331L16.6245 8.36892L17.734 6.70471C16.6948 6.01192 15.3394 6.01192 14.3002 6.70471L15.4097 8.36892ZM16.6245 8.36892L15.5019 10.0243C15.4094 9.96156 15.3605 9.9112 15.4036 9.95176C15.423 9.96996 15.4533 9.99922 15.5017 10.0468C15.5493 10.0938 15.6087 10.1529 15.6851 10.2293L17.0994 8.81498L18.5137 7.40067C18.2779 7.16488 18.0222 6.90007 17.7471 6.71355L16.6245 8.36892ZM17.0994 8.81498L15.6851 10.2293C15.7611 10.3053 15.8199 10.3644 15.8663 10.4116C15.9134 10.4595 15.9422 10.4895 15.96 10.5084C15.9984 10.5493 15.95 10.5021 15.8892 10.4125L17.5446 9.2899L19.2 8.16729C19.0143 7.89345 18.7547 7.64167 18.5137 7.40067L17.0994 8.81498ZM17.5446 9.2899L15.8804 10.3994C15.6769 10.0941 15.6783 9.6991 15.8792 9.39711L17.5446 10.5048L19.21 11.6124C19.9007 10.574 19.9021 9.22041 19.2088 8.18043L17.5446 9.2899ZM17.5446 10.5048L15.8864 9.3864C15.9495 9.2928 16.0001 9.24349 15.9604 9.28589C15.9426 9.30486 15.9137 9.33494 15.8665 9.3829C15.82 9.4302 15.7611 9.48935 15.6851 9.56537L17.0994 10.9797L18.5137 12.394C18.7523 12.1555 19.0165 11.8995 19.2029 11.6231L17.5446 10.5048ZM17.0994 10.9797L15.6851 9.56537L15.2216 10.0289L16.6359 11.4432L18.0502 12.8575L18.5137 12.394L17.0994 10.9797ZM16.6359 11.4432L18.0502 10.0289L15.8855 7.86423L14.4712 9.27853L13.0569 10.6928L15.2216 12.8575L16.6359 11.4432ZM14.4712 9.27853L15.8855 10.6928L16.349 10.2293L14.9347 8.81498L13.5204 7.40068L13.0569 7.86423L14.4712 9.27853ZM13.5441 10.2056L12.1286 11.6188L14.2916 13.7852L15.707 12.3721L17.1225 10.9589L14.9595 8.79247L13.5441 10.2056ZM15.707 12.3721L14.2927 10.9578L9.25489 15.9956L10.6692 17.4099L12.0835 18.8242L17.1213 13.7864L15.707 12.3721ZM10.6692 17.4099L9.25581 15.9947C9.34689 15.9037 9.4563 15.8332 9.57676 15.7878L10.2823 17.6594L10.9877 19.5309C11.3986 19.376 11.7719 19.1354 12.0826 18.8251L10.6692 17.4099ZM10.2823 17.6594L9.57676 15.7878C9.69723 15.7424 9.82597 15.7231 9.95444 15.7313L9.82693 17.7274L9.69942 19.7235C10.1377 19.7515 10.5768 19.6858 10.9877 19.5309L10.2823 17.6594ZM9.82693 17.7274L9.95322 15.7313L9.52465 15.7041L9.39837 17.7003L9.27208 19.6964L9.70064 19.7235L9.82693 17.7274ZM9.39837 17.7003L9.52313 15.704C9.30964 15.6907 9.16569 15.6812 9.0555 15.6716C8.94343 15.6618 8.9128 15.6557 8.91983 15.6571L8.54386 17.6216L8.16788 19.586C8.50455 19.6505 8.90551 19.6735 9.2736 19.6965L9.39837 17.7003ZM8.54386 17.6216L8.92591 15.6583C8.93501 15.66 9.05271 15.6823 9.21758 15.7572C9.30322 15.7961 9.42512 15.8598 9.55936 15.96C9.62699 16.0104 9.70513 16.0756 9.78601 16.158C9.8261 16.1989 9.87217 16.2494 9.92035 16.3097C9.94424 16.3397 9.97335 16.3779 10.0048 16.4236C10.0271 16.4561 10.0859 16.5428 10.1457 16.6624L8.35669 17.5568L6.56772 18.4513C6.71501 18.7459 6.90276 18.9312 6.93069 18.9597C7.0137 19.0443 7.09516 19.1124 7.16774 19.1666C7.31187 19.2741 7.45017 19.348 7.56227 19.3989C7.78005 19.4979 7.9909 19.5516 8.16181 19.5849L8.54386 17.6216ZM8.35669 17.5568V15.5567C8.61917 15.5567 8.82074 15.609 8.91077 15.635C9.01751 15.6658 9.10152 15.6997 9.15405 15.7225C9.25847 15.7679 9.33734 15.813 9.37915 15.8378C9.46751 15.8904 9.53389 15.9392 9.5708 15.9674C9.65083 16.0286 9.71254 16.0854 9.75466 16.1267C9.8427 16.2129 9.90986 16.2949 9.95904 16.3614C10.058 16.4952 10.1207 16.6162 10.1586 16.7001C10.2323 16.8629 10.2543 16.9788 10.2561 16.9885L8.29284 17.3705L6.32954 17.7526C6.3629 17.9241 6.41638 18.1331 6.51384 18.3486C6.56371 18.4589 6.63639 18.5961 6.7425 18.7396C6.79525 18.8109 6.86526 18.896 6.95531 18.9843C6.99844 19.0265 7.06095 19.084 7.14154 19.1456C7.17874 19.174 7.24536 19.223 7.33388 19.2757C7.37578 19.3006 7.45473 19.3457 7.5592 19.3911C7.58765 19.4035 7.91388 19.557 8.35669 19.557V17.5568ZM8.29284 17.3705L10.2573 16.9946C10.2587 17.0019 10.2526 16.9713 10.2428 16.8587C10.2332 16.7482 10.2237 16.604 10.2104 16.3904L8.21412 16.5152L6.21789 16.6399C6.24086 17.0074 6.2639 17.4097 6.32836 17.7465L8.29284 17.3705ZM8.21412 16.5152L10.2102 16.3886L10.1831 15.9609L8.18701 16.0875L6.19089 16.214L6.218 16.6417L8.21412 16.5152ZM8.18701 16.0875L10.1831 15.96C10.1913 16.0884 10.172 16.2172 10.1266 16.3376L8.25505 15.6322L6.38347 14.9267C6.22858 15.3376 6.16295 15.7768 6.19095 16.215L8.18701 16.0875ZM8.25505 15.6322L10.1266 16.3376C10.0812 16.4581 10.0107 16.5675 9.91972 16.6586L8.5045 15.2452L7.08928 13.8318C6.77896 14.1425 6.53836 14.5158 6.38347 14.9267L8.25505 15.6322ZM8.5045 15.2452L9.91881 16.6595L14.9584 11.6199L13.5441 10.2056L12.1298 8.79133L7.09019 13.8309L8.5045 15.2452ZM14.6811 7.27827L13.5682 5.61631C13.1725 5.88127 12.8374 6.22776 12.6379 6.42722L14.0522 7.84153L15.4665 9.25583C15.596 9.12636 15.6722 9.05067 15.7373 8.99081C15.7979 8.93503 15.8111 8.92876 15.7939 8.94022L14.6811 7.27827ZM14.0522 7.84153L12.6379 6.42722L12.5925 6.4727L14.0068 7.88701L15.4211 9.30132L15.4665 9.25584L14.0522 7.84153ZM14.0068 7.88701L12.5925 6.4727L11.6653 7.3998L13.0797 8.81411L14.494 10.2284L15.4211 9.30131L14.0068 7.88701ZM13.0797 8.81411L11.6652 7.39991L6.16385 12.9022L7.57827 14.3164L8.99269 15.7306L14.4941 10.2283L13.0797 8.81411ZM7.57827 14.3164L6.16407 12.902C5.72146 13.3445 5.37823 13.8763 5.15725 14.4619L7.02857 15.168L8.8999 15.8742C8.92022 15.8204 8.95178 15.7715 8.99248 15.7308L7.57827 14.3164ZM7.02857 15.168L5.15725 14.4619C4.93627 15.0475 4.84261 15.6734 4.88251 16.2981L6.87857 16.1706L8.87464 16.0431C8.87097 15.9856 8.87958 15.9281 8.8999 15.8742L7.02857 15.168ZM6.87857 16.1706L4.8822 16.293L4.90844 16.7207L6.90481 16.5983L8.90119 16.4758L8.87495 16.0481L6.87857 16.1706ZM6.90481 16.5983L4.90977 16.7408L4.91239 16.7775L6.90744 16.635L8.90249 16.4925L8.89986 16.4558L6.90481 16.5983ZM6.90744 16.635L4.91135 16.7621C4.93242 17.0929 4.95984 17.5722 5.04284 17.9995L7.00627 17.6181L8.96969 17.2366C8.94599 17.1146 8.92969 16.9187 8.90353 16.5079L6.90744 16.635ZM7.00627 17.6181L5.04176 17.9939C5.13957 18.5052 5.36761 19.2519 6.01857 19.9007L7.43046 18.4839L8.84236 17.0672C8.90305 17.1277 8.94287 17.1929 8.96444 17.2404C8.98269 17.2805 8.98011 17.291 8.97078 17.2422L7.00627 17.6181ZM7.43046 18.4839L6.01616 19.8983C6.66237 20.5445 7.40557 20.7741 7.92052 20.8726L8.29634 18.9081L8.67216 16.9436C8.62538 16.9347 8.63573 16.9322 8.67513 16.9502C8.72148 16.9713 8.78532 17.0102 8.84477 17.0696L7.43046 18.4839ZM8.29634 18.9081L7.92094 20.8727C8.34462 20.9537 8.8205 20.9811 9.15231 21.0022L9.27942 19.0061L9.40653 17.01C8.99666 16.9839 8.79732 16.9675 8.67174 16.9435L8.29634 18.9081ZM9.27942 19.0061L9.1369 21.0011L9.17364 21.0038L9.31615 19.0087L9.45867 17.0137L9.42193 17.011L9.27942 19.0061ZM9.31615 19.0087L9.18961 21.0048L9.6173 21.032L9.74384 19.0358L9.87039 17.0397L9.44269 17.0126L9.31615 19.0087ZM9.74384 19.0358L9.61633 21.0319C10.241 21.0718 10.8669 20.9781 11.4525 20.7572L10.7464 18.8858L10.0402 17.0145C9.98635 17.0348 9.92879 17.0434 9.87135 17.0398L9.74384 19.0358ZM10.7464 18.8858L11.4525 20.7572C12.0381 20.5362 12.5699 20.193 13.0124 19.7503L11.598 18.3361L10.1836 16.9219C10.1429 16.9626 10.094 16.9942 10.0402 17.0145L10.7464 18.8858ZM11.598 18.3361L13.0123 19.7504L18.5137 14.2491L17.0994 12.8348L15.6851 11.4204L10.1837 16.9218L11.598 18.3361ZM17.0994 12.8348L18.5137 14.2491L19.4408 13.322L18.0265 11.9077L16.6122 10.4933L15.6851 11.4204L17.0994 12.8348ZM18.0265 11.9077L19.4542 13.3084L19.4997 13.2621L18.072 11.8613L16.6443 10.4605L16.5988 10.5069L18.0265 11.9077ZM18.072 11.8613L19.4838 13.2781C19.681 13.0816 20.0336 12.7425 20.3006 12.3411L18.6353 11.2333L16.9699 10.1255C16.9838 10.1047 16.9798 10.1155 16.9246 10.1754C16.8653 10.2397 16.7902 10.315 16.6603 10.4444L18.072 11.8613ZM18.6353 11.2333L20.2982 12.3447C20.7824 11.6201 21.0409 10.7683 21.0409 9.89689H19.0407H17.0406C17.0406 9.97702 17.0168 10.0553 16.9723 10.122L18.6353 11.2333ZM19.0407 9.89689H21.0409C21.0409 9.02548 20.7824 8.17364 20.2982 7.44912L18.6353 8.56047L16.9723 9.67181C17.0168 9.73843 17.0406 9.81676 17.0406 9.89689H19.0407ZM18.6353 8.56047L20.2983 7.44929C20.0329 7.05206 19.6816 6.71344 19.4863 6.51818L18.072 7.93249L16.6577 9.34679C16.7885 9.47755 16.8641 9.5535 16.9246 9.61907C16.9809 9.68016 16.9856 9.69168 16.9722 9.67164L18.6353 8.56047ZM18.072 7.93249L19.5 6.53198L19.4554 6.4865L18.0274 7.88701L16.5994 9.28751L16.644 9.33299L18.072 7.93249ZM18.0274 7.88701L19.4417 6.4727L19.3962 6.42722L17.9819 7.84153L16.5676 9.25584L16.6131 9.30132L18.0274 7.88701ZM17.9819 7.84153L19.3962 6.42722C19.1968 6.22776 18.8616 5.88127 18.4659 5.61631L17.3531 7.27827L16.2402 8.94022C16.2231 8.92876 16.2362 8.93503 16.2969 8.99081C16.362 9.05067 16.4381 9.12636 16.5676 9.25583L17.9819 7.84153ZM17.3531 7.27827L18.464 5.61506C17.7397 5.13122 16.8882 4.87297 16.0171 4.87297V6.8731V8.87323C16.0972 8.87323 16.1755 8.89698 16.2421 8.94147L17.3531 7.27827ZM16.0171 6.8731V4.87297C15.146 4.87297 14.2945 5.13122 13.5701 5.61506L14.6811 7.27827L15.7921 8.94147C15.8587 8.89698 15.937 8.87323 16.0171 8.87323V6.8731ZM15.1866 17.7615V15.7614C14.4822 15.7614 13.8066 16.0412 13.3085 16.5393L14.7228 17.9536L16.1371 19.3679C15.885 19.62 15.5431 19.7616 15.1866 19.7616V17.7615ZM14.7228 17.9536L13.3085 16.5393C12.8104 17.0374 12.5305 17.713 12.5305 18.4175H14.5307H16.5308C16.5308 18.774 16.3892 19.1159 16.1371 19.3679L14.7228 17.9536ZM14.5307 18.4175H12.5305C12.5305 19.1219 12.8104 19.7975 13.3085 20.2956L14.7228 18.8813L16.1371 17.467C16.3892 17.7191 16.5308 18.061 16.5308 18.4175H14.5307ZM14.7228 18.8813L13.3085 20.2956C13.8066 20.7937 14.4822 21.0736 15.1866 21.0736V19.0734V17.0733C15.5431 17.0733 15.885 17.2149 16.1371 17.467L14.7228 18.8813ZM15.1866 19.0734V21.0736H18.6851V19.0734V17.0733H15.1866V19.0734ZM18.6851 19.0734V21.0736C19.3896 21.0736 20.0652 20.7937 20.5633 20.2956L19.149 18.8813L17.7346 17.467C17.9867 17.2149 18.3286 17.0733 18.6851 17.0733V19.0734ZM19.149 18.8813L20.5633 20.2956C21.0614 19.7975 21.3412 19.1219 21.3412 18.4175H19.3411H17.341C17.341 18.061 17.4826 17.7191 17.7346 17.467L19.149 18.8813ZM19.3411 18.4175H21.3412C21.3412 17.713 21.0614 17.0374 20.5633 16.5393L19.149 17.9536L17.7346 19.3679C17.4826 19.1159 17.341 18.774 17.341 18.4175H19.3411ZM19.149 17.9536L20.5633 16.5393C20.0651 16.0412 19.3896 15.7614 18.6851 15.7614V17.7615V19.7616C18.3286 19.7616 17.9867 19.62 17.7346 19.3679L19.149 17.9536ZM18.6851 17.7615V15.7614H15.1866V17.7615V19.7616H18.6851V17.7615Z" fill="white" fill-opacity="0.5" mask="url(#path-2-inside-1_13_1374)"/>
</g>
<defs>
<clipPath id="clip0_13_1374">
<rect width="13.9931" height="13.9931" fill="white" transform="translate(5.99869 5.99869)"/>
</clipPath>
</defs>
</svg>
