<svg width="16" height="16" viewBox="0 0 16 16" fill="none" xmlns="http://www.w3.org/2000/svg">
<g clip-path="url(#clip0_13_1366)">
<path fill-rule="evenodd" clip-rule="evenodd" d="M8.00362 15.5052C8.20253 15.5052 8.39329 15.4262 8.53395 15.2855C8.6746 15.1449 8.75362 14.9541 8.75362 14.7552V10.5052H8.79462C9.66662 10.5052 10.4036 10.5052 10.9536 10.4252C11.5036 10.3452 12.1486 10.1482 12.4536 9.49718C12.7586 8.84718 12.4966 8.22418 12.2056 7.75118C11.9156 7.27718 11.4436 6.71118 10.8856 6.04118L10.8456 5.99418L10.4236 5.48718L10.3906 5.44718C9.99162 4.96918 9.64262 4.55018 9.31862 4.25718C8.97062 3.94318 8.54962 3.67918 8.00362 3.67918C7.45762 3.67918 7.03762 3.94318 6.68862 4.25718C6.36462 4.55018 6.01562 4.96918 5.61762 5.44718L5.58362 5.48718L5.16162 5.99418L5.12162 6.04118C4.56462 6.71118 4.09162 7.27718 3.80162 7.75118C3.51162 8.22418 3.24962 8.84718 3.55362 9.49718C3.85862 10.1482 4.50362 10.3452 5.05362 10.4252C5.60362 10.5052 6.34162 10.5052 7.21362 10.5052H7.25362V14.7552C7.25362 15.1692 7.58962 15.5052 8.00362 15.5052ZM4.92462 8.85518C4.97062 8.87718 5.06962 8.91218 5.26962 8.94118C5.69862 9.00318 6.32462 9.00518 7.27362 9.00518H8.73362C9.68362 9.00518 10.3096 9.00318 10.7376 8.94118C10.9376 8.91118 11.0376 8.87718 11.0826 8.85518C11.0459 8.74192 10.9937 8.63425 10.9276 8.53518C10.7006 8.16618 10.3016 7.68418 9.69362 6.95518L9.27162 6.44818C8.82962 5.91818 8.54862 5.58318 8.31362 5.37118C8.10062 5.17818 8.02362 5.17918 8.00562 5.17918H8.00262C7.98262 5.17918 7.90662 5.17918 7.69462 5.37118C7.45962 5.58318 7.17862 5.91718 6.73662 6.44818L6.31362 6.95518C5.70562 7.68418 5.30662 8.16618 5.07962 8.53518C4.97362 8.70818 4.93662 8.80618 4.92462 8.85518ZM14.0036 2.00518C14.2025 2.00518 14.3933 1.92616 14.5339 1.78551C14.6746 1.64486 14.7536 1.45409 14.7536 1.25518C14.7536 1.05627 14.6746 0.865504 14.5339 0.724852C14.3933 0.5842 14.2025 0.505182 14.0036 0.505182H2.00362C1.8047 0.505182 1.61394 0.5842 1.47329 0.724852C1.33263 0.865504 1.25362 1.05627 1.25362 1.25518C1.25362 1.45409 1.33263 1.64486 1.47329 1.78551C1.61394 1.92616 1.8047 2.00518 2.00362 2.00518H14.0036Z" fill="black"/>
<path d="M8.00337 4.17941C8.32586 4.17941 8.60028 4.31201 8.8687 4.53003L8.98395 4.62868C9.27526 4.89227 9.59852 5.2781 10.0046 5.76454V5.76552L10.0378 5.80556L10.0397 5.80752L10.4616 6.31441L10.4646 6.31831L10.5046 6.36519C11.0708 7.04502 11.5132 7.57718 11.7792 8.01186L11.7802 8.01283C12.0532 8.45671 12.1914 8.87807 12.0009 9.28446V9.28543C11.8097 9.69308 11.3979 9.85493 10.8816 9.93003C10.3759 10.0036 9.68138 10.0052 8.79447 10.0052H8.2534V14.7548C8.2534 14.821 8.22697 14.8847 8.18015 14.9316C8.13327 14.9784 8.06966 15.0048 8.00337 15.0048C7.86566 15.0047 7.75335 14.8925 7.75335 14.7548V10.0052H7.21325C6.32649 10.0052 5.63082 10.0036 5.12513 9.93003C4.60911 9.85491 4.19797 9.69282 4.00684 9.28543C3.81663 8.87872 3.95523 8.45713 4.22757 8.01283L4.22855 8.01186C4.49502 7.57642 4.93887 7.04351 5.50603 6.36129L5.50505 6.36031L5.54217 6.31831L5.54607 6.31441L5.96507 5.81142L5.99827 5.77138L6.00218 5.76747C6.40786 5.28025 6.73114 4.89264 7.0228 4.62868C7.3303 4.35201 7.63517 4.17949 8.00337 4.17941ZM8.0024 4.67946C7.79884 4.67953 7.60635 4.77664 7.35975 4.99981C7.09181 5.24152 6.7838 5.60891 6.35183 6.12786L5.9299 6.63475C5.48209 7.17169 5.12927 7.59613 4.8751 7.94642L4.6534 8.2736C4.53439 8.46784 4.4679 8.61664 4.43853 8.73655L4.34184 9.13112L4.70907 9.30594C4.81646 9.3573 4.96894 9.40268 5.1974 9.43584H5.19838C5.6719 9.50424 6.34234 9.50518 7.2738 9.50518H8.73392C9.66628 9.50518 10.3367 9.5043 10.8093 9.43584H10.8123C11.0337 9.40259 11.1914 9.35834 11.3026 9.30399L11.6923 9.11354L11.5584 8.70041C11.5076 8.54375 11.435 8.39502 11.3436 8.25798H11.3426C11.0907 7.85317 10.6661 7.34131 10.0768 6.63475L9.6559 6.12786C9.22464 5.61074 8.91589 5.24151 8.64797 4.99981C8.52277 4.88649 8.41277 4.80615 8.30907 4.75467C8.25515 4.72792 8.19855 4.70717 8.14011 4.69411C8.11073 4.68756 8.08258 4.6836 8.05611 4.68142C8.04312 4.68035 8.03152 4.6797 8.02193 4.67946H8.0024ZM2.0037 1.00524H14.004C14.0702 1.00534 14.134 1.03171 14.1808 1.07849C14.2275 1.12534 14.2541 1.18909 14.2541 1.25526C14.254 1.32145 14.2276 1.3852 14.1808 1.43204C14.134 1.47882 14.0702 1.50518 14.004 1.50529H2.0037C1.93745 1.50529 1.87379 1.47886 1.82692 1.43204C1.78006 1.38519 1.75369 1.32152 1.75367 1.25526C1.75367 1.18897 1.78005 1.12536 1.82692 1.07849C1.87379 1.03161 1.93741 1.00524 2.0037 1.00524Z" stroke="white" stroke-opacity="0.5"/>
</g>
<defs>
<clipPath id="clip0_13_1366">
<rect width="15.9983" height="15.9983" fill="white"/>
</clipPath>
</defs>
</svg>
