<svg width="16" height="16" viewBox="0 0 16 16" fill="none" xmlns="http://www.w3.org/2000/svg">
<g clip-path="url(#clip0_13_758)">
<path d="M7.44875 13.8557C11.3126 13.8557 14.4495 10.7188 14.4495 6.85493C14.4495 2.99111 11.3126 -0.145829 7.44875 -0.145829C3.58492 -0.145829 0.447986 2.99111 0.447986 6.85493C0.447986 10.7188 3.58492 13.8557 7.44875 13.8557ZM6.79243 9.26144V7.51125H5.04224C4.67852 7.51125 4.38591 7.21864 4.38591 6.85493Cnan nan 4.67852 6.19861 5.04224 6.19861H6.79243V4.44842C6.79243 4.08471 7.08504 3.7921 7.44875 3.7921Cnan nan 8.10507 4.08471 8.10507 4.44842V6.19861H9.85526C10.219 6.19861 10.5116 6.49122 10.5116 6.85493Cnan nan 10.219 7.51125 9.85526 7.51125H8.10507V9.26144C8.10507 9.62516 7.81246 9.91777 7.44875 9.91777Cnan nan 6.79243 9.62516 6.79243 9.26144Z" fill="#A3A3A3"/>
</g>
<defs>
<clipPath id="clip0_13_758">
<rect width="15.9983" height="15.9983" fill="white"/>
</clipPath>
</defs>
</svg>
