<svg width="16" height="16" viewBox="0 0 16 16" fill="none" xmlns="http://www.w3.org/2000/svg">
<path fill-rule="evenodd" clip-rule="evenodd" d="M3.99802 9.42C3.84823 9.29713 3.65671 9.23699 3.46358 9.25219C3.27045 9.26738 3.09068 9.35672 2.96194 9.50151C2.83321 9.64629 2.76548 9.83528 2.77295 10.0289C2.78042 10.2225 2.86251 10.4057 3.00202 10.5401L7.50202 14.5405C7.63927 14.6624 7.81646 14.7298 8.00001 14.7298C8.18357 14.7298 8.36076 14.6624 8.49801 14.5405L12.998 10.5401C13.1375 10.4057 13.2196 10.2225 13.2271 10.0289C13.2346 9.83528 13.1668 9.64629 13.0381 9.50151C12.9093 9.35672 12.7296 9.26738 12.5364 9.25219C12.3433 9.23699 12.1518 9.29713 12.002 9.42L8.00001 12.9764L3.99802 9.42Z" fill="black"/>
<path fill-rule="evenodd" clip-rule="evenodd" d="M12.002 6.56069C12.1518 6.68357 12.3433 6.7437 12.5364 6.72851C12.7296 6.71332 12.9093 6.62397 13.0381 6.47919C13.1668 6.33441 13.2346 6.14542 13.2271 5.95182C13.2196 5.75821 13.1375 5.575 12.998 5.44057L8.49801 1.44015C8.36076 1.31825 8.18357 1.25093 8.00001 1.25093C7.81646 1.25093 7.63927 1.31825 7.50202 1.44015L3.00202 5.44057C2.86251 5.575 2.78042 5.75821 2.77295 5.95182C2.76548 6.14542 2.83321 6.33441 2.96194 6.47919C3.09068 6.62397 3.27045 6.71332 3.46358 6.72851C3.65671 6.7437 3.84823 6.68357 3.99802 6.56069L8.00001 3.00231L12.002 6.55869V6.56069Z" fill="black"/>
</svg>
