<svg width="100" height="20" viewBox="0 0 100 20" fill="none" xmlns="http://www.w3.org/2000/svg">
<g clip-path="url(#clip0_13_731)">
<path fill-rule="evenodd" clip-rule="evenodd" d="M9.39303 12.6727C8.7891 13.8805 8.21516 14.0925 7.99919 14.0925C7.78321 14.0925 7.20927 13.8805 6.60534 12.6727C6.11439 11.6908 5.75543 10.3049 5.67344 8.70311H10.3249C10.2429 10.3049 9.88498 11.6908 9.39303 12.6727ZM10.3249 7.29626H5.67344C5.75543 5.69344 6.11339 4.30759 6.60534 3.32569C7.20927 2.11782 7.78321 1.90585 7.99919 1.90585C8.21516 1.90585 8.7891 2.11782 9.39303 3.32569C9.88398 4.30759 10.2429 5.69444 10.3249 7.29626ZM11.7328 8.70111C11.6428 10.6159 11.1948 12.3227 10.5229 13.5466C11.4786 13.1111 12.3057 12.4363 12.9241 11.5874C13.5425 10.7385 13.9312 9.74431 14.0525 8.70111H11.7328ZM14.0525 7.29526H11.7328C11.6428 5.38047 11.1948 3.67366 10.5229 2.45079C11.4785 2.88614 12.3055 3.56083 12.9239 4.40954C13.5422 5.25826 13.931 6.25224 14.0525 7.29526ZM4.26559 7.29526C4.35558 5.38047 4.80353 3.67366 5.47546 2.45079C4.51987 2.88614 3.69287 3.56083 3.07451 4.40954C2.45615 5.25826 2.06739 6.25224 1.94584 7.29526H4.26559ZM1.94584 8.70111C2.06722 9.74431 2.45592 10.7385 3.07428 11.5874C3.69265 12.4363 4.51974 13.1111 5.47546 13.5466C4.80353 12.3227 4.35558 10.6169 4.26559 8.70111H1.94584ZM15.4984 7.99919C15.4984 7.01438 15.3044 6.03922 14.9275 5.12937C14.5507 4.21953 13.9983 3.39282 13.3019 2.69646C12.6055 2.0001 11.7788 1.44771 10.869 1.07084C9.95916 0.693972 8.98399 0.5 7.99919 0.5C7.01438 0.5 6.03922 0.693972 5.12937 1.07084C4.21953 1.44771 3.39282 2.0001 2.69646 2.69646C2.0001 3.39282 1.44771 4.21953 1.07084 5.12937C0.693972 6.03922 0.5 7.01438 0.5 7.99919C0.5 9.98809 1.29009 11.8955 2.69646 13.3019C4.10283 14.7083 6.01028 15.4984 7.99919 15.4984C9.98809 15.4984 11.8955 14.7083 13.3019 13.3019C14.7083 11.8955 15.4984 9.98809 15.4984 7.99919Z" fill="black"/>
<path d="M7.99902 1C8.91817 1 9.82855 1.18146 10.6777 1.5332C11.5268 1.88491 12.2984 2.4 12.9482 3.0498C13.5981 3.69967 14.1141 4.47124 14.4658 5.32031C14.8175 6.16944 14.998 7.07993 14.998 7.99902C14.998 9.85532 14.2608 11.6356 12.9482 12.9482C11.6356 14.2608 9.85532 14.998 7.99902 14.998C6.14278 14.998 4.36237 14.2608 3.0498 12.9482C1.7373 11.6357 1 9.85525 1 7.99902C1.00002 7.07993 1.18148 6.16944 1.5332 5.32031C1.88494 4.47133 2.4 3.69961 3.0498 3.0498C3.69961 2.4 4.47133 1.88494 5.32031 1.5332C6.16944 1.18148 7.07993 1.00002 7.99902 1ZM1.44922 8.75879C1.58054 9.88748 2.00089 10.9634 2.66992 11.8818C3.33898 12.8003 4.23449 13.5308 5.26855 14.002L6.63867 14.626L5.91406 13.3057C5.28711 12.1637 4.85197 10.5366 4.76465 8.67773L4.74219 8.20117H1.38477L1.44922 8.75879ZM11.2334 8.67773C11.1461 10.5355 10.7118 12.1637 10.085 13.3057L9.36035 14.626L10.7305 14.002C11.7645 13.5308 12.6591 12.8003 13.3281 11.8818C13.9972 10.9633 14.4175 9.88751 14.5488 8.75879L14.6143 8.20117H11.2559L11.2334 8.67773ZM5.17383 8.72852C5.25858 10.3843 5.63036 11.8408 6.1582 12.8965C6.79281 14.1656 7.49748 14.5927 7.99902 14.5928C8.46921 14.5928 9.1185 14.2176 9.7207 13.125L9.83984 12.8965C10.369 11.8404 10.7395 10.384 10.8242 8.72852L10.8516 8.20312H5.14746L5.17383 8.72852ZM7.99902 1.40625C7.49752 1.40634 6.79278 1.83265 6.1582 3.10156C5.62909 4.15764 5.25859 5.61407 5.17383 7.27051L5.14746 7.7959H10.8516L10.8242 7.27051C10.7395 5.61493 10.3676 4.15821 9.83984 3.10254C9.20514 1.83314 8.5006 1.40625 7.99902 1.40625ZM5.26855 1.99609C4.23463 2.46714 3.33897 3.19695 2.66992 4.11523C2.00102 5.03343 1.58072 6.10893 1.44922 7.2373L1.38379 7.79492H4.74219L4.76465 7.31836C4.85201 5.46046 5.28723 3.83221 5.91406 2.69141L6.63965 1.37109L5.26855 1.99609ZM10.085 2.69141C10.7118 3.83221 11.146 5.46047 11.2334 7.31836L11.2559 7.79492H14.6143L14.5488 7.2373C14.4173 6.10888 13.9971 5.03345 13.3281 4.11523C12.6591 3.19705 11.7642 2.46714 10.7305 1.99609L9.35938 1.37109L10.085 2.69141Z" stroke="white" stroke-opacity="0.5"/>
</g>
<defs>
<clipPath id="clip0_13_731">
<rect width="15.9983" height="15.9983" fill="white"/>
</clipPath>
</defs>
</svg>
