<svg width="16" height="16" viewBox="0 0 16 16" fill="none" xmlns="http://www.w3.org/2000/svg">
<g clip-path="url(#clip0_13_1354)">
<path fill-rule="evenodd" clip-rule="evenodd" d="M7.75006 0.250027C5.33606 0.250027 3.50006 2.08603 3.50006 4.50003C3.50006 5.72503 3.97406 6.50703 4.40006 7.07503C4.49006 7.19503 4.56506 7.29103 4.63006 7.37303C4.73206 7.50303 4.81006 7.60103 4.88506 7.71803C4.98606 7.87603 5.00006 7.95103 5.00006 8.00003C5.00006 8.34003 4.87406 8.53603 4.60805 8.72803C4.30806 8.94503 3.90006 9.10303 3.35806 9.31303L3.22805 9.36303C2.67805 9.57803 1.99505 9.85303 1.46105 10.317C0.880054 10.821 0.500054 11.524 0.500054 12.5C0.500054 13.252 0.841054 13.854 1.35005 14.299C1.83805 14.726 2.48305 15.016 3.16006 15.219C4.51406 15.625 6.22506 15.75 7.75006 15.75C7.94897 15.75 8.13973 15.671 8.28039 15.5304C8.42104 15.3897 8.50006 15.1989 8.50006 15C8.50006 14.8011 8.42104 14.6104 8.28039 14.4697C8.13973 14.329 7.94897 14.25 7.75006 14.25C6.27506 14.25 4.73606 14.125 3.59006 13.782C3.01705 13.609 2.60005 13.399 2.33805 13.17C2.09605 12.959 2.00005 12.748 2.00005 12.5C2.00005 11.976 2.18005 11.679 2.44605 11.448C2.75506 11.179 3.19706 10.985 3.77206 10.761L3.93106 10.7C4.42406 10.51 5.01806 10.282 5.48606 9.94403C6.06406 9.52703 6.50006 8.91003 6.50006 8.00003C6.50006 7.54903 6.32606 7.18703 6.14706 6.90703C6.03506 6.73403 5.88206 6.53703 5.75006 6.37003L5.60006 6.17503C5.27606 5.74303 5.00006 5.27503 5.00006 4.50003C5.00006 2.91403 6.16406 1.75003 7.75006 1.75003C9.33606 1.75003 10.5001 2.91403 10.5001 4.50003C10.5001 5.17203 10.2921 5.61003 10.0371 5.98403C9.9784 6.06533 9.93664 6.15757 9.91425 6.25529C9.89185 6.35301 9.88927 6.45422 9.90667 6.55296C9.92406 6.65169 9.96107 6.74593 10.0155 6.83011C10.07 6.9143 10.1407 6.98671 10.2236 7.04307C10.3065 7.09944 10.3999 7.13861 10.4982 7.15827C10.5965 7.17793 10.6978 7.17768 10.796 7.15754C10.8942 7.1374 10.9874 7.09777 11.07 7.041C11.1526 6.98424 11.223 6.91148 11.2771 6.82703C11.7566 6.14663 12.0096 5.33241 12.0001 4.50003C12.0001 2.08603 10.1641 0.250027 7.75006 0.250027ZM15.3111 9.49703C15.4343 9.34707 15.4946 9.15517 15.4793 8.96167C15.464 8.76817 15.3743 8.58813 15.229 8.45941C15.0837 8.3307 14.8942 8.26332 14.7002 8.27146C14.5063 8.27959 14.3231 8.3626 14.1891 8.50303L11.2271 11.843L10.3311 10.747C10.2051 10.5931 10.0231 10.4955 9.82516 10.4757C9.62721 10.4559 9.42951 10.5156 9.27556 10.6415C9.1216 10.7675 9.02399 10.9495 9.00421 11.1474C8.98442 11.3454 9.04408 11.5431 9.17006 11.697L10.6241 13.475C10.6928 13.5591 10.779 13.6273 10.8766 13.6749C10.9743 13.7224 11.0811 13.7482 11.1897 13.7503C11.2983 13.7525 11.4061 13.7311 11.5056 13.6875C11.6051 13.644 11.694 13.5793 11.7661 13.498L15.3111 9.49703Z" fill="black"/>
<path d="M7.74987 0.750082C9.88769 0.750082 11.5003 2.36266 11.5003 4.50049V4.50537C11.5086 5.2326 11.2873 5.94434 10.8684 6.5388L10.8615 6.54856L10.8557 6.55735C10.8378 6.58535 10.8147 6.60977 10.7873 6.62865C10.7598 6.64757 10.7282 6.661 10.6955 6.66772C10.6628 6.67443 10.6286 6.67427 10.5959 6.66772C10.5634 6.66116 10.5325 6.64824 10.505 6.62963C10.4774 6.61084 10.4538 6.58638 10.4357 6.55833C10.4176 6.5304 10.4054 6.49927 10.3996 6.46652C10.3938 6.43362 10.3941 6.39947 10.4015 6.3669C10.409 6.33449 10.4231 6.30405 10.4425 6.27705L10.4504 6.26533C10.7465 5.83084 11.0001 5.29659 11.0002 4.50049C11.0002 2.63832 9.61204 1.25014 7.74987 1.25014C5.88779 1.25023 4.50049 2.63838 4.50049 4.50049C4.5006 5.42534 4.84164 5.99779 5.19978 6.47531L5.20369 6.4802L5.3541 6.67455L5.358 6.68041C5.49095 6.84861 5.62979 7.02811 5.72719 7.17851C5.88022 7.41838 5.99964 7.68444 5.99968 7.99989C5.99968 8.71866 5.66812 9.19588 5.19392 9.53815L5.19295 9.53912C4.88857 9.75886 4.51458 9.9301 4.13326 10.0841L3.75138 10.2335L3.59316 10.2941L3.59023 10.2951C3.0251 10.5152 2.50167 10.736 2.11742 11.0705C1.945 11.2204 1.78464 11.4069 1.6701 11.6536C1.55581 11.8999 1.50016 12.1798 1.50016 12.5004C1.50026 12.9144 1.67613 13.256 2.00901 13.5464C2.3465 13.8414 2.83951 14.0773 3.44569 14.2603L3.44666 14.2613C4.66222 14.6251 6.2585 14.7496 7.74987 14.7497C7.81603 14.7497 7.8798 14.7762 7.92664 14.8229C7.97343 14.8697 7.9998 14.9335 7.99989 14.9997C7.99989 15.0659 7.97347 15.1296 7.92664 15.1765C7.87977 15.2233 7.81615 15.2497 7.74987 15.2497C6.2414 15.2497 4.58819 15.1249 3.30407 14.7399C2.66144 14.5472 2.09149 14.2834 1.67889 13.9224C1.25912 13.5553 1.00021 13.0837 1.00011 12.5004C1.00011 11.6744 1.31302 11.1068 1.78828 10.6945H1.78926C2.24881 10.2953 2.85187 10.0462 3.40955 9.82822L3.53749 9.77938H3.53847C4.05787 9.57814 4.53601 9.39589 4.89995 9.13283L4.90092 9.13381C5.06716 9.01382 5.22731 8.86581 5.34042 8.66403C5.45608 8.45762 5.5006 8.23463 5.5006 7.99989C5.50056 7.81688 5.43274 7.64698 5.30624 7.44905V7.44808L5.16755 7.24981C5.12043 7.18706 5.0718 7.12643 5.02301 7.06424L5.02203 7.06229L4.80033 6.77515C4.40836 6.25253 4.00055 5.57485 4.00043 4.50049C4.00043 2.36272 5.61213 0.750177 7.74987 0.750082ZM14.7213 8.77146C14.7859 8.76879 14.8487 8.79112 14.8971 8.83397C14.9455 8.87684 14.976 8.93652 14.9811 9.00098C14.9862 9.06507 14.965 9.12792 14.9245 9.17776L11.3919 13.1665C11.3679 13.1935 11.338 13.2145 11.3049 13.229C11.2718 13.2435 11.2357 13.2512 11.1995 13.2505C11.1635 13.2497 11.1283 13.2408 11.0959 13.2251C11.0798 13.2172 11.0641 13.2078 11.05 13.1967L11.011 13.1587L9.5567 11.3801C9.51495 11.329 9.49552 11.2632 9.50201 11.1975C9.50859 11.1316 9.54067 11.0705 9.59186 11.0285C9.64318 10.9866 9.7095 10.9663 9.77548 10.9729C9.84108 10.9794 9.9015 11.0119 9.94346 11.0627V11.0637L10.84 12.1595L11.2112 12.6137L11.6009 12.1752L14.5524 8.84569C14.5968 8.80015 14.6577 8.77413 14.7213 8.77146Z" stroke="white" stroke-opacity="0.5"/>
</g>
<defs>
<clipPath id="clip0_13_1354">
<rect width="15.9983" height="15.9983" fill="white"/>
</clipPath>
</defs>
</svg>
