<svg width="16" height="16" viewBox="0 0 16 16" fill="none" xmlns="http://www.w3.org/2000/svg">
<g clip-path="url(#clip0_13_1339)">
<path fill-rule="evenodd" clip-rule="evenodd" d="M3.20403 1.25014C1.44003 1.25014 0.251027 2.93814 0.251027 4.69214V6.14614C0.250027 6.21414 0.250027 6.30914 0.258027 6.39314C0.27051 6.55993 0.326354 6.72057 0.420027 6.85914C0.562027 7.06414 0.768027 7.15714 0.831027 7.18614L0.836027 7.18814C0.919027 7.22614 1.02103 7.26414 1.11303 7.29814L1.12903 7.30514C1.30603 7.37114 1.52303 7.61414 1.52303 8.00114C1.52303 8.38814 1.30603 8.63114 1.12903 8.69714L1.11203 8.70414C1.02103 8.73814 0.919027 8.77614 0.836027 8.81414L0.831027 8.81614C0.768027 8.84514 0.562027 8.93814 0.420027 9.14314C0.326518 9.28142 0.270681 9.44169 0.258027 9.60814C0.250027 9.69214 0.250027 9.78814 0.250027 9.85514V11.3081C0.250027 13.0631 1.43803 14.7511 3.20403 14.7511H12.796C14.562 14.7511 15.75 13.0631 15.75 11.3081V9.85414C15.75 9.78614 15.75 9.69114 15.742 9.60714C15.7294 9.44069 15.6735 9.28042 15.58 9.14214C15.438 8.93714 15.232 8.84414 15.169 8.81514L15.164 8.81214C15.0731 8.77275 14.9811 8.73606 14.888 8.70214L14.871 8.69614C14.694 8.63014 14.477 8.38714 14.477 8.00014C14.477 7.61314 14.694 7.37014 14.871 7.30414L14.888 7.29714C14.979 7.26314 15.081 7.22514 15.164 7.18714L15.169 7.18514C15.3327 7.1147 15.4746 7.00181 15.58 6.85814C15.6737 6.71957 15.7295 6.55893 15.742 6.39214C15.75 6.30814 15.75 6.21314 15.75 6.14514V4.69314C15.75 2.93814 14.56 1.25014 12.796 1.25014H3.20403ZM1.75103 4.69314C1.75103 3.47214 2.53503 2.75014 3.20403 2.75014H9.25003V5.75814C9.25003 5.95705 9.32905 6.14782 9.4697 6.28847C9.61035 6.42912 9.80112 6.50814 10 6.50814C10.1989 6.50814 10.3897 6.42912 10.5304 6.28847C10.671 6.14782 10.75 5.95705 10.75 5.75814V2.75014H12.796C13.465 2.75014 14.249 3.47214 14.249 4.69314V5.93714C13.461 6.28114 12.977 7.11514 12.977 8.00014C12.977 8.88514 13.461 9.72014 14.25 10.0631V11.3071C14.25 12.5281 13.466 13.2501 12.796 13.2501H10.75V10.7581C10.75 10.5592 10.671 10.3685 10.5304 10.2278C10.3897 10.0872 10.1989 10.0081 10 10.0081C9.80112 10.0081 9.61035 10.0872 9.4697 10.2278C9.32905 10.3685 9.25003 10.5592 9.25003 10.7581V13.2501H3.20403C2.53403 13.2501 1.75003 12.5281 1.75003 11.3071V10.0631C2.54003 9.71914 3.02303 8.88514 3.02303 8.00014C3.02303 7.11514 2.53903 6.28014 1.75003 5.93714L1.75103 4.69314Z" fill="black"/>
<path d="M3.20445 1.75019H12.7963C14.1894 1.75037 15.2496 3.10921 15.2497 4.69289V6.1452C15.2497 6.21739 15.2492 6.2882 15.2438 6.34444V6.35518C15.2381 6.43131 15.2118 6.50394 15.1706 6.5681C15.1185 6.63669 15.0506 6.69123 14.9714 6.72534L14.9674 6.72729L14.9557 6.73218C14.8924 6.76116 14.8086 6.79299 14.7125 6.82887L14.7057 6.8318L14.6979 6.83473L14.6803 6.84156V6.84254C14.2928 6.99588 13.9772 7.43703 13.9771 7.99989C13.9771 8.57063 14.301 9.01769 14.6959 9.16506L14.7047 9.16799L14.7213 9.17385C14.796 9.20116 14.8699 9.23052 14.943 9.26175L14.9596 9.26956C15.0159 9.29548 15.1098 9.34201 15.1686 9.42681C15.2116 9.4919 15.2369 9.56681 15.2429 9.6446L15.2438 9.65437C15.2492 9.71067 15.2497 9.78227 15.2497 9.85459V11.3079C15.2497 12.8919 14.1913 14.2514 12.7963 14.2515H3.20445C1.8093 14.2515 0.750082 12.892 0.750082 11.3079V9.85556C0.750082 9.78417 0.750582 9.71162 0.755942 9.65535L0.756918 9.64558C0.762911 9.56783 0.788267 9.49285 0.831145 9.42778C0.889806 9.34316 0.982803 9.29553 1.03918 9.26956L1.04406 9.26859C1.10735 9.23961 1.19121 9.20875 1.28725 9.17287L1.29506 9.16994L1.30288 9.16604V9.16506L1.30385 9.16604C1.30588 9.16528 1.30769 9.16388 1.30971 9.16311L1.31948 9.1592L1.3185 9.15822C1.70651 9.0052 2.02268 8.56429 2.02268 8.00087C2.02258 7.4424 1.71166 7.00498 1.32827 6.8484L1.32925 6.84742L1.31362 6.83961L1.29995 6.83375L1.28627 6.82887C1.19087 6.79361 1.10687 6.76191 1.04406 6.73315L1.03332 6.72827L1.03136 6.72729C0.989542 6.7077 0.931042 6.67811 0.880955 6.63158L0.831145 6.57396C0.788342 6.50882 0.7628 6.43394 0.756918 6.35616L0.755942 6.34542L0.751058 6.15301V4.69192C0.751157 3.10897 1.81129 1.75019 3.20445 1.75019ZM14.7497 9.73543L14.4498 9.60456C13.8685 9.35186 13.4771 8.71472 13.4771 7.99989C13.4771 7.28552 13.8678 6.64894 14.4488 6.39523L14.7487 6.26435V4.69289C14.7486 3.28156 13.8198 2.25043 12.7963 2.25024H10.2501V5.75844C10.2501 5.82462 10.2237 5.88841 10.1769 5.93522C10.13 5.982 10.0663 6.00844 10.0001 6.00847C9.93391 6.00847 9.87019 5.98197 9.82333 5.93522C9.77653 5.88841 9.75016 5.82462 9.75008 5.75844V2.25024H3.20445C2.1809 2.25024 1.25122 3.28143 1.25111 4.69289L1.25014 5.93717V6.26533L1.55095 6.3962C2.13194 6.649 2.52265 7.28533 2.52274 7.99989C2.52274 8.71466 2.13255 9.35088 1.54997 9.60456L1.25014 9.73543V11.3069C1.25014 12.7187 2.18002 13.7505 3.20445 13.7505H9.75008V10.758C9.75012 10.6918 9.77649 10.6281 9.82333 10.5812C9.8702 10.5344 9.93387 10.508 10.0001 10.508C10.0664 10.508 10.13 10.5344 10.1769 10.5812C10.2237 10.6281 10.2501 10.6918 10.2501 10.758V13.7505H12.7963C13.8206 13.7503 14.7497 12.7186 14.7497 11.3069V9.73543Z" stroke="white" stroke-opacity="0.5"/>
</g>
<defs>
<clipPath id="clip0_13_1339">
<rect width="15.9983" height="15.9983" fill="white"/>
</clipPath>
</defs>
</svg>
