<svg width="14" height="14" viewBox="0 0 14 14" fill="none" xmlns="http://www.w3.org/2000/svg">
<g clip-path="url(#clip0_13_681)">
<mask id="path-1-inside-1_13_681" fill="white">
<path fill-rule="evenodd" clip-rule="evenodd" d="M8.21972 11.0898C7.69122 12.1468 7.18897 12.3323 6.99997 12.3323C6.81097 12.3323 6.30872 12.1468 5.78022 11.0898C5.3506 10.2305 5.03647 9.01775 4.96472 7.616H9.03522C8.96347 9.01775 8.65022 10.2305 8.21972 11.0898ZM9.03522 6.38488H4.96472C5.03647 4.98225 5.34972 3.7695 5.78022 2.91025C6.30872 1.85325 6.81097 1.66775 6.99997 1.66775C7.18897 1.66775 7.69122 1.85325 8.21972 2.91025C8.64935 3.7695 8.96347 4.98313 9.03522 6.38488ZM10.2672 7.61425C10.1885 9.28988 9.79647 10.7835 9.20847 11.8545C10.0448 11.4735 10.7686 10.8829 11.3097 10.14C11.8509 9.39716 12.191 8.52716 12.2972 7.61425H10.2672ZM12.2972 6.384H10.2672C10.1885 4.70838 9.79647 3.21475 9.20847 2.14463C10.0447 2.52561 10.7684 3.11602 11.3095 3.85873C11.8507 4.60143 12.1909 5.47126 12.2972 6.384ZM3.73272 6.384C3.81147 4.70838 4.20347 3.21475 4.79147 2.14463C3.95524 2.52561 3.23154 3.11602 2.69042 3.85873C2.14929 4.60143 1.80908 5.47126 1.70272 6.384H3.73272ZM1.70272 7.61425C1.80894 8.52716 2.14908 9.39716 2.69022 10.14C3.23135 10.8829 3.95513 11.4735 4.79147 11.8545C4.20347 10.7835 3.81147 9.29075 3.73272 7.61425H1.70272ZM13.5625 7C13.5625 6.1382 13.3927 5.28484 13.0629 4.48864C12.7331 3.69244 12.2497 2.969 11.6404 2.35961C11.031 1.75023 10.3075 1.26684 9.51133 0.937044C8.71513 0.607247 7.86177 0.437503 6.99997 0.437503C6.13817 0.437503 5.28481 0.607247 4.48861 0.937044C3.69241 1.26684 2.96897 1.75023 2.35958 2.35961C1.7502 2.969 1.26681 3.69244 0.937013 4.48864C0.607217 5.28484 0.437473 6.1382 0.437473 7C0.437473 8.74049 1.12888 10.4097 2.35958 11.6404C3.59029 12.8711 5.25949 13.5625 6.99997 13.5625C8.74046 13.5625 10.4097 12.8711 11.6404 11.6404C12.8711 10.4097 13.5625 8.74049 13.5625 7Z"/>
</mask>
<path fill-rule="evenodd" clip-rule="evenodd" d="M8.21972 11.0898C7.69122 12.1468 7.18897 12.3323 6.99997 12.3323C6.81097 12.3323 6.30872 12.1468 5.78022 11.0898C5.3506 10.2305 5.03647 9.01775 4.96472 7.616H9.03522C8.96347 9.01775 8.65022 10.2305 8.21972 11.0898ZM9.03522 6.38488H4.96472C5.03647 4.98225 5.34972 3.7695 5.78022 2.91025C6.30872 1.85325 6.81097 1.66775 6.99997 1.66775C7.18897 1.66775 7.69122 1.85325 8.21972 2.91025C8.64935 3.7695 8.96347 4.98313 9.03522 6.38488ZM10.2672 7.61425C10.1885 9.28988 9.79647 10.7835 9.20847 11.8545C10.0448 11.4735 10.7686 10.8829 11.3097 10.14C11.8509 9.39716 12.191 8.52716 12.2972 7.61425H10.2672ZM12.2972 6.384H10.2672C10.1885 4.70838 9.79647 3.21475 9.20847 2.14463C10.0447 2.52561 10.7684 3.11602 11.3095 3.85873C11.8507 4.60143 12.1909 5.47126 12.2972 6.384ZM3.73272 6.384C3.81147 4.70838 4.20347 3.21475 4.79147 2.14463C3.95524 2.52561 3.23154 3.11602 2.69042 3.85873C2.14929 4.60143 1.80908 5.47126 1.70272 6.384H3.73272ZM1.70272 7.61425C1.80894 8.52716 2.14908 9.39716 2.69022 10.14C3.23135 10.8829 3.95513 11.4735 4.79147 11.8545C4.20347 10.7835 3.81147 9.29075 3.73272 7.61425H1.70272ZM13.5625 7C13.5625 6.1382 13.3927 5.28484 13.0629 4.48864C12.7331 3.69244 12.2497 2.969 11.6404 2.35961C11.031 1.75023 10.3075 1.26684 9.51133 0.937044C8.71513 0.607247 7.86177 0.437503 6.99997 0.437503C6.13817 0.437503 5.28481 0.607247 4.48861 0.937044C3.69241 1.26684 2.96897 1.75023 2.35958 2.35961C1.7502 2.969 1.26681 3.69244 0.937013 4.48864C0.607217 5.28484 0.437473 6.1382 0.437473 7C0.437473 8.74049 1.12888 10.4097 2.35958 11.6404C3.59029 12.8711 5.25949 13.5625 6.99997 13.5625C8.74046 13.5625 10.4097 12.8711 11.6404 11.6404C12.8711 10.4097 13.5625 8.74049 13.5625 7Z" fill="black"/>
<path d="M8.21972 11.0898L6.43071 10.1934L6.42998 10.1949L8.21972 11.0898ZM4.96472 7.616V5.61501H2.85869L2.96635 7.71829L4.96472 7.616ZM9.03522 7.616L11.0336 7.71829L11.1413 5.61501H9.03522V7.616ZM9.03522 6.38488V8.38587H11.1413L11.0336 6.28259L9.03522 6.38488ZM4.96472 6.38488L2.96634 6.28265L2.85875 8.38587H4.96472V6.38488ZM5.78022 2.91025L7.56924 3.80658L7.56996 3.80512L5.78022 2.91025ZM10.2672 7.61425V5.61326H8.35806L8.26844 7.52031L10.2672 7.61425ZM9.20847 11.8545L7.45445 10.8915L4.5543 16.1739L10.0381 13.6754L9.20847 11.8545ZM12.2972 7.61425L14.2848 7.84551L14.5445 5.61326H12.2972V7.61425ZM12.2972 6.384V8.385H14.5449L14.2848 6.1524L12.2972 6.384ZM10.2672 6.384L8.26844 6.47794L8.35806 8.385H10.2672V6.384ZM9.20847 2.14463L10.0381 0.323709L4.55124 -2.17603L7.45478 3.10823L9.20847 2.14463ZM3.73272 6.384V8.385H5.64188L5.73151 6.47794L3.73272 6.384ZM4.79147 2.14463L6.54517 3.10823L9.4487 -2.17603L3.96188 0.323709L4.79147 2.14463ZM1.70272 6.384L-0.284821 6.1524L-0.544983 8.385H1.70272V6.384ZM1.70272 7.61425V5.61326H-0.544589L-0.284861 7.84551L1.70272 7.61425ZM4.79147 11.8545L3.96184 13.6754L9.44565 16.1739L6.5455 10.8915L4.79147 11.8545ZM3.73272 7.61425L5.73151 7.52036L5.64193 5.61326H3.73272V7.61425ZM13.5625 7H15.5635H13.5625ZM6.99997 0.437503V-1.56349V0.437503ZM0.437473 7H-1.56352H0.437473ZM6.99997 13.5625V11.5615V13.5625ZM8.21972 11.0898L6.42998 10.1949C6.25325 10.5483 6.15155 10.6116 6.20523 10.5671C6.23391 10.5433 6.30708 10.489 6.43074 10.4379C6.54499 10.3906 6.73865 10.3313 6.99997 10.3313V12.3323V14.3332C8.33193 14.3332 9.35783 13.2879 10.0095 11.9846L8.21972 11.0898ZM6.99997 12.3323V10.3313C7.2613 10.3313 7.45495 10.3906 7.5692 10.4379C7.69287 10.489 7.76604 10.5433 7.79472 10.5671C7.84839 10.6116 7.7467 10.5483 7.56996 10.1949L5.78022 11.0898L3.99048 11.9846C4.64211 13.2879 5.66802 14.3332 6.99997 14.3332V12.3323ZM5.78022 11.0898L7.56996 10.1949C7.28799 9.63094 7.02379 8.69934 6.9631 7.51371L4.96472 7.616L2.96635 7.71829C3.04916 9.33617 3.4132 10.8301 3.99048 11.9846L5.78022 11.0898ZM4.96472 7.616V9.617H9.03522V7.616V5.61501H4.96472V7.616ZM9.03522 7.616L7.03685 7.51371C6.9761 8.70054 6.71243 9.63114 6.43071 10.1934L8.21972 11.0898L10.0087 11.9861C10.588 10.8299 10.9508 9.33497 11.0336 7.71829L9.03522 7.616ZM9.03522 6.38488V4.38389H4.96472V6.38488V8.38587H9.03522V6.38488ZM4.96472 6.38488L6.9631 6.4871C7.02386 5.29934 7.28756 4.36879 7.56923 3.80658L5.78022 2.91025L3.99121 2.01393C3.41189 3.17022 3.04908 4.66516 2.96634 6.28265L4.96472 6.38488ZM5.78022 2.91025L7.56996 3.80512C7.7467 3.45166 7.84839 3.38839 7.79472 3.43291C7.76604 3.45669 7.69287 3.51096 7.5692 3.56214C7.45495 3.60943 7.2613 3.66875 6.99997 3.66875V1.66775V-0.333239C5.66802 -0.333239 4.64211 0.712121 3.99048 2.01538L5.78022 2.91025ZM6.99997 1.66775V3.66875C6.73865 3.66875 6.54499 3.60943 6.43074 3.56214C6.30708 3.51096 6.23391 3.45669 6.20523 3.43291C6.15155 3.38839 6.25325 3.45166 6.42998 3.80512L8.21972 2.91025L10.0095 2.01538C9.35783 0.712121 8.33193 -0.333239 6.99997 -0.333239V1.66775ZM8.21972 2.91025L6.42998 3.80512C6.71186 4.36888 6.97615 5.30129 7.03685 6.48717L9.03522 6.38488L11.0336 6.28259C10.9508 4.66497 10.5868 3.17012 10.0095 2.01538L8.21972 2.91025ZM10.2672 7.61425L8.26844 7.52031C8.20037 8.96867 7.86254 10.1482 7.45445 10.8915L9.20847 11.8545L10.9625 12.8175C11.7304 11.4188 12.1766 9.61108 12.266 7.70819L10.2672 7.61425ZM9.20847 11.8545L10.0381 13.6754C11.188 13.1515 12.1831 12.3395 12.9271 11.3182L11.3097 10.14L9.69235 8.96187C9.35409 9.42624 8.90164 9.7954 8.37884 10.0336L9.20847 11.8545ZM11.3097 10.14L12.9271 11.3182C13.6711 10.2968 14.1388 9.10066 14.2848 7.84551L12.2972 7.61425L10.3096 7.38299C10.2432 7.95365 10.0306 8.4975 9.69235 8.96187L11.3097 10.14ZM12.2972 7.61425V5.61326H10.2672V7.61425V9.61524H12.2972V7.61425ZM12.2972 6.384V4.38301H10.2672V6.384V8.385H12.2972V6.384ZM10.2672 6.384L12.266 6.29007C12.1766 4.38736 11.7305 2.57927 10.9622 1.18103L9.20847 2.14463L7.45478 3.10823C7.86249 3.85024 8.20036 5.0294 8.26844 6.47794L10.2672 6.384ZM9.20847 2.14463L8.37888 3.96555C8.90161 4.2037 9.354 4.57277 9.69226 5.03704L11.3095 3.85873L12.9268 2.68041C12.1828 1.65927 11.1878 0.847511 10.0381 0.323709L9.20847 2.14463ZM11.3095 3.85873L9.69226 5.03704C10.0305 5.50131 10.2432 6.04504 10.3097 6.61561L12.2972 6.384L14.2848 6.1524C14.1385 4.89747 13.6708 3.70155 12.9268 2.68041L11.3095 3.85873ZM3.73272 6.384L5.73151 6.47794C5.79959 5.0294 6.13746 3.85024 6.54517 3.10823L4.79147 2.14463L3.03778 1.18103C2.26949 2.57927 1.82336 4.38736 1.73394 6.29007L3.73272 6.384ZM4.79147 2.14463L3.96188 0.323709C2.81216 0.847511 1.81714 1.65927 1.07315 2.68041L2.69042 3.85873L4.30768 5.03704C4.64594 4.57277 5.09833 4.2037 5.62106 3.96555L4.79147 2.14463ZM2.69042 3.85873L1.07315 2.68041C0.329167 3.70155 -0.138585 4.89747 -0.284821 6.1524L1.70272 6.384L3.69027 6.61561C3.75675 6.04505 3.96942 5.50131 4.30768 5.03704L2.69042 3.85873ZM1.70272 6.384V8.385H3.73272V6.384V4.38301H1.70272V6.384ZM1.70272 7.61425L-0.284861 7.84551C-0.138822 9.10066 0.328839 10.2968 1.07284 11.3182L2.69022 10.14L4.30759 8.96187C3.96933 8.4975 3.7567 7.95365 3.69031 7.38299L1.70272 7.61425ZM2.69022 10.14L1.07284 11.3182C1.81683 12.3395 2.81195 13.1515 3.96184 13.6754L4.79147 11.8545L5.6211 10.0336C5.0983 9.7954 4.64586 9.42625 4.30759 8.96187L2.69022 10.14ZM4.79147 11.8545L6.5455 10.8915C6.13735 10.1481 5.79958 8.96943 5.73151 7.52036L3.73272 7.61425L1.73393 7.70814C1.82337 9.61207 2.26959 11.4189 3.03745 12.8175L4.79147 11.8545ZM3.73272 7.61425V5.61326H1.70272V7.61425V9.61524H3.73272V7.61425ZM13.5625 7H15.5635C15.5635 5.87543 15.342 4.76187 14.9116 3.7229L13.0629 4.48864L11.2143 5.25439C11.4435 5.80782 11.5615 6.40098 11.5615 7H13.5625ZM13.0629 4.48864L14.9116 3.7229C14.4813 2.68393 13.8505 1.73989 13.0553 0.9447L11.6404 2.35961L10.2254 3.77453C10.649 4.19811 10.985 4.70096 11.2143 5.25439L13.0629 4.48864ZM11.6404 2.35961L13.0553 0.9447C12.2601 0.149506 11.316 -0.481276 10.2771 -0.911632L9.51133 0.937044L8.74559 2.78572C9.29901 3.01496 9.80187 3.35096 10.2254 3.77453L11.6404 2.35961ZM9.51133 0.937044L10.2771 -0.911632C9.23811 -1.34199 8.12455 -1.56349 6.99997 -1.56349V0.437503V2.4385C7.599 2.4385 8.19216 2.55648 8.74559 2.78572L9.51133 0.937044ZM6.99997 0.437503V-1.56349C5.8754 -1.56349 4.76184 -1.34199 3.72287 -0.911632L4.48861 0.937044L5.25436 2.78572C5.80779 2.55648 6.40095 2.4385 6.99997 2.4385V0.437503ZM4.48861 0.937044L3.72287 -0.911632C2.6839 -0.481276 1.73986 0.149506 0.944669 0.9447L2.35958 2.35961L3.7745 3.77453C4.19807 3.35096 4.70093 3.01496 5.25436 2.78572L4.48861 0.937044ZM2.35958 2.35961L0.944669 0.9447C0.149476 1.73989 -0.481307 2.68393 -0.911663 3.7229L0.937013 4.48864L2.78569 5.25439C3.01493 4.70096 3.35092 4.19811 3.7745 3.77453L2.35958 2.35961ZM0.937013 4.48864L-0.911663 3.7229C-1.34202 4.76187 -1.56352 5.87543 -1.56352 7H0.437473H2.43847C2.43847 6.40098 2.55645 5.80782 2.78569 5.25439L0.937013 4.48864ZM0.437473 7H-1.56352C-1.56352 9.27118 -0.661297 11.4493 0.944669 13.0553L2.35958 11.6404L3.7745 10.2255C2.91905 9.37003 2.43847 8.20979 2.43847 7H0.437473ZM2.35958 11.6404L0.944669 13.0553C2.55064 14.6613 4.72879 15.5635 6.99997 15.5635V13.5625V11.5615C5.79019 11.5615 4.62995 11.0809 3.7745 10.2255L2.35958 11.6404ZM6.99997 13.5625V15.5635C9.27115 15.5635 11.4493 14.6613 13.0553 13.0553L11.6404 11.6404L10.2254 10.2255C9.37 11.0809 8.20976 11.5615 6.99997 11.5615V13.5625ZM11.6404 11.6404L13.0553 13.0553C14.6612 11.4493 15.5635 9.27118 15.5635 7H13.5625H11.5615C11.5615 8.20979 11.0809 9.37003 10.2254 10.2255L11.6404 11.6404Z" fill="white" fill-opacity="0.64" mask="url(#path-1-inside-1_13_681)"/>
</g>
<defs>
<clipPath id="clip0_13_681">
<rect width="13.9931" height="13.9931" fill="white" transform="scale(1.0005)"/>
</clipPath>
</defs>
</svg>
